# xmcd
#
# Track frame offsets:
#	150
#	19487
#	38662
#	64860
#	84457
#	109300
#	129685
#	152757
#	172302
#	190870
#	213567
#
# Disc length: 3126 seconds
#
# Revision: 1
# Processed by: cddbd v1.5.1PL0 Copyright (c) Steve Scherf et al.
# Submitted via: CDex 1.50Beta5
#
DISCID=a00c340b
DTITLE=ふきのとう - 緑輝く日々
DYEAR=1900
DGENRE=Folk
TTITLE0=何故愛は
TTITLE1=恋人のように
TTITLE2=五月雨
TTITLE3=静寂
TTITLE4=雪どけ水
TTITLE5=春雷
TTITLE6=緑輝く日々
TTITLE7=やさしさとして想い出として
TTITLE8=春の雨
TTITLE9=山のロープウェイ
TTITLE10=南風の頃
EXTD=
EXTT0=
EXTT1=
EXTT2=
EXTT3=
EXTT4=
EXTT5=
EXTT6=
EXTT7=
EXTT8=
EXTT9=
EXTT10=
PLAYORDER=
